<?xml version="1.0" encoding="UTF-8"?>
<!DOCTYPE svg PUBLIC "-//W3C//DTD SVG 1.1//EN" "http://www.w3.org/Graphics/SVG/1.1/DTD/svg11.dtd">
<svg version="1.1" xmlns="http://www.w3.org/2000/svg" xmlns:xlink="http://www.w3.org/1999/xlink" x="0" y="0" width="256" height="256" viewBox="0, 0, 256, 256">
  <g id="launch" transform="translate(0, 0)">
    <path d="M205.294,16.638 C208.296,16.791 207.027,16.691 209.105,16.882 C212.809,17.266 216.795,19.214 219.946,21.113 C222.202,22.475 224.339,24.033 226.326,25.763 C226.905,26.268 227.458,26.801 228.025,27.319 C234.426,33.566 238.862,41.335 239.07,50.433 C239.07,53.063 239.17,55.651 238.159,58.139 C235.976,63.511 231.48,67.868 226.117,70.026 L219.978,71.761 L206.973,76.603 C200.154,79.392 195.224,84.11 189.579,88.604 C185.218,92.077 180.35,95.091 175.517,97.901 C170.321,100.922 164.129,101.331 158.598,103.541 L155.911,104.279 L152.982,107.125 L31.069,229.039 C30.019,230.088 28.456,231.205 27.704,232.487 L27.189,234.867 C25.974,237.576 22.447,240.65 19.459,238.811 C14.907,236.011 17.227,231.761 20.669,229.356 L23.833,228.362 C27.679,225.571 30.985,221.249 34.349,217.884 L148.52,103.713 L151.497,100.653 L152.222,97.979 C154.499,92.282 155.036,86.003 157.866,80.513 C163.232,70.104 171.86,62.185 177.867,52.22 C179.855,48.922 181.095,44.516 182.208,40.838 L185.451,30.924 C187.6,24.747 192.504,19.28 198.892,17.331 C200.965,16.669 203.146,16.686 205.294,16.638 z M187.057,80.212 C185.108,81.86 183.169,83.517 181.332,85.29 C181.984,85.726 182.733,86.323 183.563,86.263 C184.235,86.061 184.885,85.453 185.459,85.072 C185.377,83.86 185.702,82.675 186.241,81.598 C186.446,81.188 186.682,80.786 186.97,80.343 L187.057,80.212 z M197.644,75.342 C196.876,75.485 196.144,75.775 195.417,76.054 C195.327,76.089 195.017,76.21 194.995,76.219 C193.878,76.654 193.268,76.866 192.614,77.019 C192.019,77.162 191.407,77.232 190.803,77.116 L189.735,77.986 C189.809,78.24 189.727,78.509 189.663,78.755 C189.536,79.147 189.319,79.523 188.896,80.146 C188.825,80.251 188.568,80.625 188.56,80.638 C188.423,80.838 188.317,80.996 188.214,81.153 C187.955,81.552 187.746,81.908 187.569,82.262 C187.325,82.782 187.092,83.314 187.015,83.889 C190.568,81.14 194.014,78.254 197.627,75.581 C197.623,75.501 197.634,75.422 197.644,75.342 z M187.342,73.885 C184.284,76.801 181.193,79.689 178.265,82.737 C178.597,83.049 178.313,82.783 179.137,83.514 C182.044,80.754 185.129,78.188 188.209,75.626 C188.201,75.478 188.211,75.573 188.153,75.344 C187.967,74.812 187.651,74.35 187.342,73.885 z M184.146,70.373 C181.166,73.498 178.216,76.656 175.101,79.648 C175.295,79.841 175.488,80.033 175.685,80.222 C175.875,80.42 176.068,80.615 176.262,80.808 C176.784,80.275 177.298,79.731 177.83,79.207 C181.998,75.1 182.127,74.999 185.545,71.753 C185.169,71.352 185.394,71.59 184.865,71.043 C184.312,70.53 184.551,70.754 184.146,70.373 z M180.295,67.699 C177.726,70.778 175.112,73.818 172.376,76.751 C173.124,77.595 172.853,77.304 173.169,77.641 C173.691,77.129 174.223,76.626 174.737,76.105 C178.778,72.006 178.843,71.915 182.029,68.56 C181.587,68.207 181.087,67.958 180.563,67.755 C180.339,67.698 180.43,67.707 180.295,67.699 z M199.269,70.451 C195.404,73.403 197.505,71.772 192.986,75.367 C193.483,75.21 193.97,75.022 194.456,74.835 C194.477,74.827 194.788,74.706 194.879,74.67 C195.896,74.275 196.484,74.072 197.083,73.935 C197.583,73.834 197.289,73.884 197.967,73.806 C198.207,73.014 198.593,72.271 198.963,71.534 C199.043,71.376 199.313,70.849 199.347,70.783 L199.478,70.525 L199.269,70.451 z M175.619,68.902 L175.564,68.938 C175.122,69.226 174.72,69.462 174.31,69.667 C173.222,70.175 172.056,70.558 170.836,70.448 C170.393,71.043 169.909,71.645 169.644,72.344 C169.562,73.186 170.214,73.925 170.627,74.59 C172.365,72.761 173.978,70.817 175.619,68.902 z M192.587,68.958 C189.754,71.606 191.048,70.392 188.702,72.599 C189.12,73.143 189.503,73.726 189.756,74.367 C190.784,73.528 191.825,72.704 192.869,71.883 C193.238,71.31 193.444,70.902 193.271,70.226 C193.108,69.77 192.854,69.359 192.587,68.958 z M203.093,70.692 L202.603,70.743 C202.572,70.747 202.532,70.751 202.46,70.759 C202.402,70.766 202.358,70.771 202.314,70.776 C201.873,70.83 201.425,70.877 200.98,70.833 C200.778,71.247 200.882,71.039 200.67,71.458 C200.635,71.526 200.366,72.051 200.287,72.206 C199.946,72.885 199.594,73.567 199.372,74.297 C201.042,73.081 202.723,71.875 204.5,70.819 C203.715,70.664 204.181,70.729 203.093,70.692 z M189.098,65.099 C186.341,68.048 187.565,66.744 185.428,69.015 C185.823,69.383 185.574,69.149 186.17,69.724 L186.184,69.738 C186.692,70.263 186.456,70.015 186.892,70.481 C189.167,68.34 187.859,69.567 190.819,66.801 C190.287,66.234 190.565,66.526 189.983,65.925 C189.374,65.36 189.669,65.635 189.098,65.099 z M198.407,63.569 C195.953,65.826 197.436,64.458 193.965,67.677 C194.428,68.287 194.802,68.961 195.046,69.686 L195.151,70.103 C198.171,67.771 196.566,68.998 199.973,66.43 C199.676,65.372 199.036,64.454 198.407,63.569 z M206.969,66.311 L206.887,66.495 C206.418,67.49 206.355,67.638 206.233,68.109 C206.092,68.682 206.059,69.272 206.162,69.857 L206.398,69.728 C207.455,69.378 208.533,69.088 209.642,68.952 C209.595,68.753 209.62,68.891 209.616,68.532 L209.56,68.47 L209.476,68.386 C209.139,68.079 208.776,67.802 208.41,67.528 C207.802,67.065 207.45,66.779 207.086,66.429 L206.969,66.311 z M205.613,65.71 C203.408,67.326 204.598,66.446 202.045,68.354 C202.014,68.708 201.888,69.028 201.728,69.34 L202.149,69.301 C202.19,69.296 202.233,69.291 202.289,69.285 C202.361,69.276 202.401,69.272 202.432,69.268 C203.177,69.156 203.892,69.171 204.626,69.321 C204.578,68.786 204.679,68.256 204.796,67.736 C204.951,67.138 205.029,66.956 205.544,65.862 L205.613,65.71 z M180.566,58.263 C180.487,58.273 180.406,58.288 180.326,58.281 C177.596,61.849 174.811,65.373 172.019,68.893 C172.582,68.772 173.136,68.618 173.646,68.339 C174,68.162 174.356,67.953 174.755,67.693 C174.912,67.591 175.07,67.485 175.27,67.348 C175.282,67.34 175.657,67.083 175.761,67.012 C176.385,66.589 176.761,66.371 177.153,66.245 C177.394,66.175 177.655,66.113 177.906,66.17 L178.791,65.1 C178.653,64.501 178.765,63.885 178.888,63.294 C179.042,62.639 179.254,62.029 179.689,60.913 C179.698,60.891 179.819,60.581 179.854,60.491 C180.137,59.763 180.413,59.03 180.566,58.263 z M213.059,62.844 C212.964,63.698 212.653,64.506 212.324,65.293 C212.239,65.49 212.148,65.689 212.033,65.937 C211.993,66.022 211.801,66.43 211.75,66.541 C211.495,67.071 211.272,67.611 211.153,68.188 C211.296,68.499 211.23,68.311 211.308,68.763 C214,68.573 216.711,68.517 219.379,68.078 C219.187,67.498 219.273,67.796 219.123,67.185 C218.72,66.633 218.974,66.954 218.321,66.256 L218.019,65.978 C217.408,65.458 216.852,65.122 215.682,64.512 C215.343,64.336 215.338,64.333 215.214,64.268 C214.623,63.948 214.307,63.79 213.696,63.362 C213.472,63.205 213.271,63.017 213.059,62.844 z M220.916,58.324 C220.972,59.167 220.895,60.012 220.82,60.852 C220.797,61.081 220.772,61.321 220.74,61.615 C220.722,61.776 220.661,62.322 220.655,62.38 C220.533,63.782 220.313,65.213 220.524,66.618 C220.746,66.981 220.978,67.339 221.17,67.719 C224.064,67.077 226.777,65.725 229.15,63.964 C228.928,63.559 229.035,63.773 228.835,63.319 L228.436,62.834 C228.127,62.553 227.838,62.25 227.511,61.991 C226.685,61.34 225.743,60.863 224.819,60.372 C224.531,60.224 224.267,60.093 223.788,59.855 C222.813,59.379 221.845,58.887 220.916,58.324 z M185.236,62.567 C184.271,62.857 184.663,62.671 184.025,63.038 C182.22,65.36 183.048,64.326 181.557,66.153 C182.6,66.683 182.005,66.351 183.31,67.205 C185.518,64.857 184.302,66.153 186.956,63.313 C186.574,63.013 186.132,62.811 185.681,62.637 L185.236,62.567 z M211.573,61.402 L209.976,62.539 C209.119,63.156 208.259,63.768 207.408,64.393 C207.431,64.506 207.432,64.461 207.425,64.529 C207.596,64.848 207.864,65.102 208.116,65.359 C208.427,65.658 208.744,65.916 209.309,66.346 C209.723,66.662 209.495,66.487 209.993,66.873 C210.106,66.544 210.259,66.231 210.403,65.915 C210.456,65.801 210.649,65.392 210.687,65.309 C210.797,65.073 210.883,64.884 210.963,64.701 C211.468,63.623 211.7,62.583 211.573,61.402 z M194.452,59.316 C192.149,61.819 193.509,60.345 190.368,63.732 C191.011,64.333 190.705,64.042 191.288,64.606 L191.302,64.62 C191.866,65.203 191.574,64.897 192.176,65.54 C195.565,62.397 194.089,63.759 196.598,61.45 L196.136,60.969 L195.548,60.405 L195.525,60.383 L195.503,60.36 C194.719,59.557 195.073,59.901 194.452,59.316 z M204.182,58.278 C200.563,61.583 202.029,60.237 199.778,62.308 C200.339,63.047 200.537,63.265 201.046,64.226 C201.225,64.564 201.346,64.93 201.496,65.282 C203.05,64.111 201.564,65.23 205.994,61.978 C205.749,60.6 204.985,59.393 204.182,58.278 z M218.664,56.483 C215.58,58.58 217.352,57.364 213.361,60.146 C213.244,60.518 213.318,60.345 213.145,60.67 L213.113,60.71 C213.777,61.748 214.85,62.384 215.907,62.955 C216.028,63.019 216.033,63.021 216.368,63.196 C217.29,63.654 218.172,64.181 218.968,64.837 C218.987,63.96 219.086,63.087 219.179,62.216 C219.186,62.157 219.247,61.612 219.264,61.453 C219.296,61.165 219.32,60.931 219.342,60.708 C219.424,59.506 219.599,58.233 219.22,57.061 C218.854,56.693 219.04,56.886 218.664,56.483 z M229.238,52.283 C229.264,52.786 229.263,53.289 229.264,53.792 C229.264,53.631 229.254,55.806 229.26,56.426 C229.29,58.506 229.38,60.634 230.144,62.592 C230.384,62.938 230.31,62.8 230.403,62.984 L230.807,62.642 C233.137,60.435 233.875,56.614 233.91,53.561 L233.509,53.598 C231.94,53.698 230.526,53.119 229.238,52.283 z M185.374,56.435 L185.125,56.561 C185.059,56.595 184.532,56.865 184.374,56.944 C183.634,57.312 182.894,57.696 182.102,57.94 C182.023,58.619 182.074,58.325 181.972,58.825 C181.836,59.424 181.633,60.012 181.238,61.029 C181.202,61.12 181.081,61.431 181.073,61.452 C180.879,61.937 180.705,62.429 180.54,62.925 C184.189,58.277 182.559,60.386 185.447,56.613 L185.374,56.435 z M189.447,55.922 C186.832,59.437 188.055,57.83 185.793,60.753 L186.222,60.862 C186.951,61.093 187.618,61.49 188.231,61.943 C191.449,58.472 190.082,59.954 192.337,57.503 C191.487,56.793 190.479,56.305 189.447,55.922 z M209.653,53.321 C207.858,54.934 209.225,53.704 205.562,57.023 C206.487,58.151 207.152,59.452 207.563,60.846 L208.355,60.275 C210.822,58.52 209.735,59.285 211.612,57.972 C211.359,56.274 210.596,54.733 209.653,53.321 z M227.434,50.734 C225.098,52.198 222.785,53.699 220.498,55.239 C220.404,55.288 220.313,55.439 220.223,55.487 C220.198,55.5 220.124,55.514 220.092,55.521 C220.364,55.929 220.252,55.72 220.436,56.143 C221.014,56.617 220.737,56.407 221.261,56.782 C222.034,57.303 222.703,57.66 224.448,58.525 C224.932,58.765 225.2,58.899 225.496,59.05 C226.375,59.516 227.27,59.975 228.071,60.57 C227.842,59.206 227.799,57.821 227.775,56.441 C227.769,55.807 227.78,53.621 227.779,53.791 C227.78,52.82 227.762,52.158 227.712,51.594 C227.692,51.317 227.649,51.044 227.593,50.772 L227.452,50.756 L227.434,50.734 z M199.752,53.53 C196.394,57.208 197.745,55.736 195.705,57.954 C196.385,58.6 196.005,58.23 196.838,59.07 L197.467,59.675 L197.96,60.197 C200.176,58.159 198.702,59.512 202.391,56.145 L201.692,55.419 L201.1,54.853 L201.077,54.831 L201.055,54.807 C200.157,53.9 200.593,54.324 199.752,53.53 z M215.266,48.292 C212.281,50.955 213.69,49.693 211.036,52.077 C212.164,53.588 212.716,55.057 213.234,56.838 C214.933,55.638 216.655,54.47 218.38,53.308 L218.236,52.975 C217.476,51.276 216.387,49.766 215.266,48.292 z M185.079,51.424 C184.026,53.194 182.827,54.875 181.611,56.536 C182.336,56.297 183.024,55.969 183.702,55.621 C183.856,55.542 184.382,55.273 184.45,55.238 C184.872,55.025 184.661,55.13 185.082,54.924 C185.043,54.481 185.095,54.035 185.132,53.593 C185.137,53.55 185.142,53.505 185.148,53.448 C185.157,53.376 185.161,53.336 185.165,53.305 C185.242,52.676 185.289,52.035 185.079,51.424 z M193.932,49.911 C191.048,53.803 192.165,52.316 190.602,54.389 C191.695,54.792 192.701,55.395 193.607,56.123 C195.676,53.873 194.327,55.343 197.646,51.707 C196.715,50.992 195.675,50.461 194.573,50.067 C194.364,49.999 194.146,49.963 193.932,49.911 z M204.768,47.992 C203.07,49.883 204.322,48.49 200.999,52.159 C201.871,52.976 201.405,52.525 202.39,53.518 L203.016,54.119 L203.76,54.899 C207.423,51.58 206.029,52.835 207.932,51.125 L206.992,50.128 L206.397,49.556 L206.374,49.534 L206.352,49.511 C205.249,48.404 205.781,48.907 204.768,47.992 z M190.192,50.297 L190.046,50.363 C188.952,50.879 188.77,50.957 188.172,51.112 C187.655,51.261 187.121,51.292 186.587,51.281 C186.802,51.996 186.709,52.747 186.64,53.475 C186.636,53.507 186.631,53.547 186.623,53.618 C186.617,53.675 186.612,53.718 186.607,53.759 C186.593,53.9 186.577,54.041 186.571,54.183 C187.13,53.903 186.813,54.021 187.534,53.867 C189.254,51.572 188.368,52.761 190.192,50.297 z M222.661,41.798 C220.64,43.541 218.636,45.304 216.638,47.074 C217.951,48.635 219.013,50.376 219.921,52.196 L219.949,52.259 C222.065,50.855 224.19,49.462 226.353,48.13 C226.191,47.736 226.318,48.04 225.947,47.228 C225.059,45.298 223.907,43.513 222.661,41.798 z M233.068,47.439 C230.949,48.599 231.899,48.059 230.208,49.043 C228.941,49.805 228.824,49.326 228.951,49.82 C228.954,49.832 228.954,49.832 228.964,49.879 C228.969,49.903 228.969,49.903 228.978,49.991 C228.979,50.023 228.979,50.054 228.979,50.085 C230.199,51.395 231.619,52.152 233.427,52.116 C233.823,52.079 233.674,52.106 233.878,52.065 C233.737,50.501 233.527,48.947 233.068,47.439 z M197.937,44.292 C197.168,45.378 196.4,46.465 195.632,47.552 L195.076,48.325 C196.466,48.735 197.763,49.434 198.895,50.335 C202.204,46.682 200.977,48.046 202.589,46.252 C201.204,45.243 199.613,44.611 197.937,44.292 z M209.714,42.47 C207.077,45.428 208.318,44.042 205.992,46.631 C207.078,47.604 206.511,47.076 207.686,48.221 L208.314,48.826 C209.26,49.824 208.949,49.453 209.309,49.887 C211.866,47.589 210.491,48.821 213.438,46.194 C213.342,46.087 213.245,45.982 213.147,45.878 C212.828,45.565 212.513,45.249 212.199,44.932 L211.595,44.357 L211.572,44.336 L211.55,44.312 L210.65,43.374 L209.714,42.47 z M186.959,46.266 C186.766,47.362 186.58,48.465 186.18,49.51 L186.047,49.754 C186.628,49.863 187.226,49.801 187.799,49.675 C188.27,49.553 188.418,49.489 189.413,49.02 L189.598,48.938 L189.479,48.821 C189.129,48.458 188.843,48.106 188.38,47.498 C188.104,47.135 187.834,46.764 187.521,46.431 L187.438,46.348 L187.375,46.292 C187.017,46.287 187.153,46.313 186.959,46.266 z M193.644,44.285 C191.723,44.697 192.523,44.435 191.207,44.945 C191.024,45.025 190.835,45.111 190.598,45.221 C190.516,45.259 190.107,45.451 189.992,45.504 C189.677,45.65 189.362,45.797 189.035,45.915 C189.421,46.413 189.246,46.185 189.562,46.599 C189.992,47.164 190.25,47.481 190.549,47.792 C190.838,48.077 190.874,48.127 191.26,48.414 C191.296,48.437 191.333,48.46 191.369,48.482 L191.371,48.483 C191.447,48.476 191.399,48.477 191.515,48.5 C192.141,47.65 192.752,46.789 193.369,45.932 C194.153,44.818 193.778,45.351 194.495,44.333 L193.644,44.285 z M228.167,37.19 C225.596,39.269 226.971,38.136 224.053,40.602 C225.477,42.396 226.582,44.403 227.624,46.433 L227.955,47.151 C229.344,46.325 230.727,45.479 232.177,44.762 C231.083,42.117 229.802,39.549 228.167,37.19 z M216.256,35.019 C214.495,37.062 212.714,39.086 210.926,41.105 C212.224,42.314 211.57,41.677 212.885,43.023 L213.498,43.606 C214.58,44.69 214.151,44.226 214.818,44.969 C216.836,43.183 218.858,41.4 220.901,39.642 C220.203,38.813 219.424,38.059 218.642,37.311 L218.619,37.289 L218.597,37.266 L218.016,36.659 C216.756,35.419 217.351,35.957 216.256,35.019 z M202.59,37.524 C201.413,39.227 200.264,40.95 199.085,42.652 C200.812,43.046 202.378,43.877 203.821,44.882 C206.215,42.218 204.95,43.631 207.616,40.641 C206.174,39.472 204.605,38.476 202.933,37.672 L202.59,37.524 z M187.852,36.54 C187.428,39.208 187.359,41.906 187.151,44.595 C187.593,44.69 187.406,44.628 187.72,44.755 C188.3,44.661 188.837,44.4 189.367,44.158 C189.478,44.107 189.886,43.915 189.971,43.875 C190.219,43.76 190.418,43.669 190.614,43.584 C191.397,43.226 192.218,42.978 193.067,42.848 C192.484,42.206 192.059,41.447 191.64,40.694 C191.574,40.57 191.572,40.565 191.395,40.226 C190.786,39.056 190.45,38.5 189.93,37.888 C189.781,37.722 189.635,37.553 189.473,37.399 C189.195,37.147 189.324,37.26 189.089,37.057 C188.974,36.958 188.845,36.876 188.722,36.785 C188.114,36.657 188.403,36.741 187.852,36.54 z M196.117,36.49 L195.2,36.566 C194.977,36.588 194.743,36.612 194.454,36.644 C194.296,36.661 193.751,36.722 193.691,36.728 C192.82,36.82 191.948,36.923 191.071,36.94 C191.75,37.717 192.234,38.633 192.712,39.54 C192.887,39.875 192.889,39.88 192.953,40 C193.45,40.948 194.022,41.871 194.856,42.561 C195.163,42.781 195.049,42.706 195.19,42.798 L195.238,42.763 C195.558,42.593 195.389,42.664 195.746,42.552 C198.109,39.156 196.884,40.928 199.418,37.237 C198.941,36.797 199.114,36.99 198.865,36.694 C197.362,36.38 198.271,36.508 196.117,36.49 z M207.778,29.555 C205.459,33.235 206.825,31.094 203.648,35.959 L203.712,35.987 C205.566,36.838 207.255,37.988 208.835,39.268 C210.598,37.276 212.358,35.282 214.093,33.267 C212.427,31.948 210.562,30.927 208.68,29.961 C207.868,29.59 208.172,29.717 207.778,29.555 z M221.005,29.339 C218.802,32.064 219.984,30.63 217.448,33.631 C219.186,35.18 218.361,34.396 219.931,35.976 L220.549,36.567 C221.864,37.904 221.29,37.27 222.295,38.444 C225.281,35.921 223.856,37.096 226.562,34.909 C225.781,33.844 224.963,32.807 224.11,31.798 C223.093,30.955 222.076,30.111 221.005,29.339 z M195.338,27.837 C195.926,28.644 196.395,29.529 196.857,30.412 C197.009,30.708 197.143,30.975 197.383,31.46 C198.248,33.205 198.605,33.874 199.126,34.647 C199.306,34.916 199.501,35.174 199.707,35.423 C200.189,35.654 199.984,35.539 200.331,35.751 L200.391,35.798 C200.437,35.585 200.391,35.745 200.683,35.393 C202.275,33.106 203.747,30.737 205.232,28.379 L205.162,28.32 C204.884,28.251 204.599,28.224 204.314,28.196 C203.75,28.146 203.088,28.128 202.117,28.128 C202.287,28.128 200.1,28.139 199.467,28.132 C198.083,28.14 196.707,28.027 195.338,27.837 z M191.955,26.766 C190.246,29.176 188.838,31.825 188.215,34.738 C188.595,34.926 188.946,35.162 189.306,35.386 C190.707,35.568 192.131,35.401 193.528,35.253 C193.586,35.246 194.132,35.186 194.293,35.168 C194.586,35.136 194.827,35.111 195.056,35.088 C195.896,35.011 196.741,34.939 197.584,34.992 C197.01,34.07 196.535,33.091 196.053,32.119 C195.815,31.64 195.684,31.377 195.536,31.089 C194.842,29.799 194.165,28.481 193.078,27.468 L192.588,27.072 C192.136,26.882 192.346,26.986 191.955,26.766 z M211.21,23.606 C210.452,25.09 209.619,26.534 208.754,27.958 L209.475,28.284 C211.556,29.238 213.489,30.469 215.306,31.855 C217.778,28.93 216.639,30.311 218.735,27.72 C216.381,26.095 213.854,24.698 211.21,23.606 z M203.897,21.766 C203.802,22.233 203.837,21.995 203.792,22.481 C203.72,24.236 204.607,25.727 205.823,26.929 L205.878,26.929 C205.9,26.929 205.9,26.929 205.931,26.931 C206.005,26.939 206.005,26.939 206.029,26.944 C206.076,26.954 206.076,26.954 206.087,26.957 L206.105,26.961 C207.537,24.606 206.703,26.026 208.546,22.664 C207.023,22.237 205.483,21.862 203.897,21.766 z M202.395,21.72 C199.128,21.664 195.554,22.652 193.266,25.101 L192.92,25.513 C193.101,25.609 192.965,25.533 193.316,25.764 C195.266,26.541 197.408,26.613 199.482,26.648 C200.102,26.654 202.276,26.644 202.116,26.644 C202.617,26.639 203.118,26.652 203.619,26.67 C202.701,25.416 202.323,23.935 202.31,22.399 C202.36,21.852 202.322,22.077 202.395,21.72 z" fill="#FFFFFF"/>
    <path d="M50.433,16.93 C53.063,16.93 55.651,16.83 58.139,17.841 C63.511,20.024 67.868,24.52 70.026,29.882 L71.761,36.021 L76.603,49.026 C79.392,55.846 84.11,60.776 88.604,66.421 C92.077,70.782 95.091,75.65 97.901,80.483 C100.922,85.679 101.331,91.871 103.541,97.402 L104.279,100.089 L107.125,103.018 L229.039,224.931 C230.088,225.981 231.205,227.544 232.487,228.296 L234.867,228.811 C237.576,230.026 240.65,233.553 238.811,236.541 C236.011,241.093 231.761,238.773 229.356,235.331 L228.362,232.167 C225.571,228.321 221.249,225.015 217.884,221.651 L103.713,107.479 L100.653,104.503 L97.979,103.778 C92.282,101.501 86.003,100.964 80.513,98.134 C70.104,92.768 62.185,84.14 52.22,78.133 C48.922,76.145 44.516,74.905 40.838,73.792 L30.923,70.549 C24.747,68.4 19.28,63.496 17.331,57.108 C16.407,54.077 16.557,50.033 16.882,46.895 C17.266,43.191 19.214,39.205 21.113,36.054 C22.475,33.798 24.033,31.661 25.763,29.674 C26.268,29.095 26.801,28.542 27.319,27.975 C33.566,21.574 41.335,17.138 50.433,16.93 z M68.902,80.381 L68.938,80.436 C69.226,80.878 69.462,81.28 69.667,81.69 C70.175,82.778 70.558,83.944 70.448,85.164 C71.043,85.607 71.645,86.091 72.344,86.356 C73.186,86.438 73.925,85.786 74.59,85.373 C72.761,83.635 70.817,82.022 68.902,80.381 z M58.263,75.434 C58.273,75.513 58.288,75.594 58.281,75.674 C61.849,78.404 65.373,81.189 68.893,83.981 C68.772,83.418 68.618,82.864 68.339,82.354 C68.162,82 67.953,81.644 67.693,81.245 C67.591,81.088 67.485,80.93 67.348,80.73 C67.34,80.718 67.083,80.343 67.012,80.239 C66.589,79.615 66.371,79.239 66.245,78.847 C66.175,78.606 66.113,78.345 66.17,78.094 L65.1,77.209 C64.501,77.347 63.884,77.235 63.294,77.112 C62.639,76.958 62.029,76.746 60.913,76.311 C60.891,76.302 60.581,76.181 60.491,76.146 C59.763,75.863 59.03,75.587 58.263,75.434 z M68.56,73.971 C68.207,74.413 67.958,74.913 67.755,75.437 C67.698,75.661 67.707,75.57 67.699,75.705 C70.778,78.274 73.818,80.888 76.75,83.624 C77.595,82.876 77.304,83.147 77.641,82.831 C77.129,82.309 76.626,81.777 76.105,81.263 C72.006,77.222 71.915,77.157 68.56,73.971 z M71.753,70.455 C71.352,70.831 71.59,70.606 71.043,71.135 C70.53,71.688 70.753,71.449 70.373,71.854 C73.498,74.834 76.656,77.784 79.648,80.899 C79.841,80.705 80.033,80.512 80.222,80.315 C80.42,80.125 80.615,79.932 80.808,79.738 C80.275,79.216 79.731,78.702 79.207,78.17 C75.1,74.002 74.999,73.873 71.753,70.455 z M75.626,67.791 C75.478,67.799 75.573,67.789 75.344,67.847 C74.812,68.033 74.35,68.349 73.885,68.658 C76.801,71.716 79.689,74.807 82.737,77.735 C83.049,77.403 82.783,77.687 83.514,76.863 C80.754,73.956 78.188,70.871 75.626,67.791 z M56.613,70.553 L56.435,70.626 L56.561,70.875 C56.594,70.941 56.865,71.468 56.944,71.626 C57.312,72.366 57.696,73.106 57.94,73.898 C58.619,73.977 58.325,73.926 58.825,74.028 C59.424,74.164 60.012,74.367 61.029,74.762 C61.12,74.798 61.431,74.919 61.452,74.927 C61.937,75.121 62.429,75.295 62.925,75.46 C58.277,71.811 60.386,73.441 56.613,70.553 z M80.212,68.943 C81.86,70.892 83.517,72.831 85.29,74.668 C85.726,74.016 86.323,73.267 86.263,72.437 C86.061,71.765 85.453,71.115 85.072,70.541 C83.86,70.623 82.675,70.298 81.598,69.759 C81.188,69.554 80.786,69.318 80.343,69.03 L80.212,68.943 z M63.313,69.044 C63.013,69.426 62.811,69.868 62.637,70.319 C62.427,70.933 62.725,71.46 63.038,71.975 C65.36,73.78 64.326,72.952 66.153,74.443 C66.683,73.4 66.351,73.995 67.205,72.69 C64.857,70.482 66.153,71.698 63.313,69.044 z M52.832,70.786 C51.728,70.812 52.193,70.733 51.424,70.921 C53.194,71.974 54.875,73.173 56.536,74.389 C56.297,73.664 55.969,72.976 55.621,72.298 C55.542,72.144 55.273,71.618 55.238,71.55 C55.025,71.128 55.13,71.339 54.924,70.918 C54.481,70.957 54.035,70.905 53.593,70.868 C53.55,70.863 53.505,70.858 53.448,70.852 C53.376,70.843 53.336,70.839 53.305,70.835 L52.832,70.786 z M66.801,65.181 C66.234,65.713 66.526,65.435 65.925,66.017 C65.36,66.626 65.635,66.331 65.099,66.902 C68.048,69.659 66.744,68.435 69.015,70.572 C69.383,70.177 69.149,70.426 69.724,69.83 L69.738,69.816 C70.263,69.308 70.015,69.544 70.481,69.108 C68.34,66.833 69.567,68.141 66.801,65.181 z M57.503,63.663 C56.793,64.513 56.305,65.521 55.922,66.553 C59.437,69.168 57.83,67.945 60.753,70.207 L60.861,69.778 C61.093,69.049 61.49,68.382 61.943,67.769 C58.472,64.551 59.954,65.918 57.503,63.663 z M48.938,66.402 L48.821,66.521 C48.458,66.871 48.106,67.157 47.498,67.62 C47.135,67.896 46.764,68.166 46.431,68.479 L46.348,68.562 L46.292,68.625 C46.287,68.983 46.313,68.847 46.266,69.041 C47.362,69.234 48.465,69.42 49.51,69.82 L49.754,69.953 C49.863,69.372 49.801,68.774 49.675,68.201 C49.553,67.73 49.489,67.582 49.02,66.587 L48.938,66.402 z M50.297,65.808 L50.363,65.954 C50.879,67.048 50.957,67.23 51.112,67.828 C51.261,68.345 51.292,68.879 51.281,69.413 C51.996,69.198 52.747,69.291 53.475,69.36 C53.507,69.364 53.547,69.368 53.618,69.377 C53.675,69.383 53.718,69.388 53.759,69.393 C53.9,69.407 54.041,69.423 54.183,69.429 C53.903,68.87 54.021,69.187 53.867,68.466 C51.572,66.746 52.761,67.632 50.297,65.808 z M75.342,58.356 C75.485,59.124 75.775,59.856 76.054,60.583 C76.089,60.673 76.21,60.983 76.219,61.005 C76.654,62.122 76.866,62.732 77.019,63.386 C77.162,63.981 77.232,64.593 77.116,65.197 L77.986,66.265 C78.24,66.191 78.509,66.273 78.755,66.337 C79.147,66.464 79.523,66.681 80.146,67.104 C80.251,67.175 80.625,67.432 80.638,67.44 C80.838,67.577 80.996,67.683 81.153,67.786 C81.552,68.045 81.908,68.254 82.262,68.431 C82.782,68.675 83.314,68.908 83.889,68.985 C81.14,65.432 78.254,61.986 75.581,58.373 C75.501,58.377 75.422,58.366 75.342,58.356 z M42.848,62.933 C42.206,63.516 41.447,63.941 40.694,64.36 C40.57,64.426 40.565,64.428 40.226,64.605 C39.056,65.214 38.5,65.55 37.888,66.07 C37.722,66.219 37.553,66.365 37.399,66.527 C37.147,66.805 37.26,66.676 37.057,66.911 C36.958,67.026 36.876,67.155 36.785,67.278 C36.657,67.886 36.741,67.597 36.54,68.148 C39.208,68.572 41.906,68.641 44.595,68.849 C44.69,68.407 44.628,68.594 44.755,68.28 C44.661,67.7 44.4,67.163 44.158,66.633 C44.107,66.522 43.915,66.114 43.875,66.029 C43.76,65.781 43.669,65.582 43.584,65.386 C43.226,64.603 42.978,63.782 42.848,62.933 z M34.992,58.416 C34.07,58.99 33.091,59.465 32.119,59.947 C31.64,60.185 31.377,60.316 31.089,60.464 C29.799,61.158 28.481,61.835 27.468,62.922 L27.072,63.411 C26.882,63.864 26.986,63.654 26.766,64.045 C29.176,65.754 31.825,67.162 34.738,67.785 C34.926,67.405 35.162,67.054 35.386,66.694 C35.568,65.293 35.401,63.869 35.253,62.472 C35.246,62.414 35.186,61.868 35.168,61.707 C35.136,61.414 35.111,61.173 35.088,60.944 C35.011,60.104 34.939,59.259 34.992,58.416 z M70.69,62.667 L70.226,62.729 C69.77,62.892 69.359,63.146 68.958,63.413 C71.606,66.246 70.392,64.952 72.599,67.298 C73.143,66.88 73.726,66.497 74.367,66.244 C73.528,65.216 72.704,64.175 71.883,63.131 C71.243,62.748 71.629,62.931 70.69,62.667 z M44.332,61.505 C44.139,62.653 44.507,63.747 44.945,64.793 C45.025,64.976 45.111,65.165 45.221,65.402 C45.259,65.484 45.451,65.893 45.504,66.008 C45.65,66.323 45.797,66.638 45.915,66.965 C46.413,66.579 46.185,66.754 46.599,66.438 C47.164,66.008 47.481,65.75 47.792,65.451 C48.077,65.162 48.127,65.126 48.414,64.74 C48.437,64.704 48.46,64.667 48.482,64.631 L48.483,64.629 C48.476,64.553 48.477,64.601 48.5,64.485 C47.65,63.859 46.789,63.248 45.932,62.631 C44.818,61.847 45.351,62.222 44.333,61.505 z M61.45,59.402 L60.969,59.863 L60.405,60.452 L60.383,60.475 L60.36,60.497 C59.557,61.281 59.901,60.927 59.316,61.548 C61.819,63.851 60.345,62.491 63.732,65.632 C64.333,64.989 64.042,65.295 64.606,64.712 L64.62,64.698 C65.203,64.134 64.897,64.426 65.54,63.824 C62.397,60.435 63.759,61.911 61.45,59.402 z M51.707,58.354 C50.992,59.285 50.461,60.325 50.067,61.427 C49.999,61.636 49.963,61.854 49.911,62.068 C53.803,64.952 52.316,63.835 54.389,65.398 C54.792,64.305 55.395,63.299 56.123,62.393 C53.873,60.324 55.343,61.673 51.707,58.354 z M37.237,56.582 C36.797,57.059 36.99,56.886 36.694,57.135 C36.331,58.315 36.458,59.59 36.566,60.8 C36.588,61.023 36.612,61.257 36.644,61.546 C36.661,61.704 36.722,62.249 36.728,62.309 C36.82,63.18 36.923,64.052 36.94,64.929 C37.717,64.25 38.633,63.766 39.54,63.288 C39.875,63.113 39.88,63.111 40,63.047 C40.948,62.55 41.871,61.978 42.561,61.144 C42.781,60.837 42.706,60.951 42.798,60.81 L42.763,60.762 C42.593,60.442 42.664,60.611 42.552,60.254 C39.156,57.891 40.928,59.116 37.237,56.582 z M26.67,52.381 C25.416,53.299 23.935,53.677 22.399,53.69 C21.852,53.64 22.077,53.678 21.72,53.605 C21.664,56.872 22.652,60.446 25.101,62.734 L25.512,63.08 C25.608,62.899 25.533,63.035 25.764,62.684 C26.541,60.734 26.612,58.592 26.648,56.518 C26.654,55.898 26.644,53.724 26.644,53.884 C26.639,53.383 26.652,52.882 26.67,52.381 z M70.525,56.522 L70.451,56.731 C73.403,60.596 71.772,58.495 75.367,63.014 C75.21,62.517 75.022,62.03 74.835,61.544 C74.827,61.523 74.706,61.212 74.67,61.121 C74.275,60.104 74.072,59.516 73.935,58.917 C73.834,58.417 73.884,58.711 73.806,58.033 C73.014,57.793 72.271,57.407 71.534,57.037 C71.376,56.957 70.849,56.687 70.783,56.653 L70.525,56.522 z M66.43,56.027 C65.372,56.324 64.453,56.964 63.569,57.593 C65.826,60.046 64.458,58.564 67.677,62.035 C68.287,61.572 68.961,61.198 69.686,60.954 L70.103,60.849 C67.771,57.829 68.997,59.434 66.43,56.027 z M46.252,53.411 C45.243,54.796 44.611,56.387 44.292,58.063 C45.378,58.832 46.465,59.6 47.552,60.368 L48.325,60.924 C48.735,59.534 49.433,58.237 50.335,57.105 C46.682,53.796 48.046,55.023 46.252,53.411 z M28.379,50.768 L28.32,50.838 C28.251,51.116 28.224,51.401 28.196,51.686 C28.146,52.25 28.128,52.912 28.128,53.883 C28.128,53.713 28.139,55.9 28.132,56.533 C28.14,57.917 28.027,59.293 27.837,60.662 C28.644,60.074 29.529,59.605 30.412,59.143 C30.708,58.991 30.975,58.857 31.46,58.617 C33.205,57.752 33.874,57.395 34.647,56.874 C34.916,56.694 35.174,56.499 35.423,56.292 C35.654,55.811 35.539,56.016 35.751,55.669 L35.798,55.609 C35.585,55.563 35.745,55.609 35.393,55.317 C33.106,53.725 30.737,52.253 28.379,50.768 z M56.145,53.609 L55.419,54.308 L54.852,54.9 L54.831,54.923 L54.807,54.945 C53.9,55.843 54.324,55.407 53.53,56.248 C57.208,59.606 55.736,58.255 57.954,60.295 C58.6,59.615 58.23,59.995 59.07,59.162 L59.675,58.533 L60.197,58.04 C58.159,55.824 59.512,57.298 56.145,53.609 z M40.641,48.384 C39.472,49.826 38.476,51.395 37.672,53.067 L37.524,53.409 C39.227,54.587 40.95,55.736 42.652,56.915 C43.046,55.188 43.877,53.622 44.882,52.179 C42.218,49.785 43.631,51.05 40.641,48.384 z M70.819,51.5 C70.652,52.169 70.649,52.714 70.743,53.397 C70.747,53.428 70.751,53.468 70.759,53.54 C70.766,53.598 70.771,53.642 70.776,53.686 C70.83,54.127 70.877,54.575 70.833,55.02 C71.247,55.222 71.039,55.118 71.458,55.33 C71.526,55.365 72.051,55.634 72.206,55.713 C72.885,56.054 73.567,56.406 74.297,56.628 C73.081,54.958 71.875,53.277 70.819,51.5 z M61.978,50.006 C60.6,50.251 59.393,51.015 58.278,51.818 C61.583,55.437 60.237,53.971 62.308,56.222 C63.047,55.661 63.265,55.463 64.226,54.954 C64.564,54.775 64.93,54.654 65.282,54.504 C64.111,52.95 65.23,54.436 61.978,50.006 z M51.124,48.068 L50.128,49.008 L49.556,49.603 L49.534,49.626 L49.511,49.648 C48.404,50.751 48.907,50.219 47.992,51.232 C49.882,52.93 48.49,51.678 52.159,55.001 C52.976,54.129 52.525,54.595 53.518,53.61 L54.119,52.984 L54.899,52.24 C51.58,48.577 52.835,49.971 51.124,48.068 z M65.71,50.387 C67.326,52.592 66.446,51.402 68.354,53.955 C68.708,53.986 69.028,54.112 69.34,54.272 L69.301,53.851 C69.296,53.81 69.291,53.767 69.285,53.711 C69.276,53.639 69.272,53.599 69.268,53.567 C69.156,52.823 69.171,52.108 69.321,51.374 C68.786,51.422 68.255,51.321 67.736,51.204 C67.138,51.049 66.956,50.971 65.862,50.456 L65.71,50.387 z M33.267,41.907 C31.948,43.573 30.927,45.438 29.961,47.32 C29.59,48.132 29.717,47.828 29.555,48.222 C33.235,50.541 31.094,49.175 35.959,52.352 L35.987,52.288 C36.838,50.434 37.988,48.745 39.268,47.165 C37.276,45.402 35.282,43.642 33.267,41.907 z M22.664,47.454 C22.237,48.977 21.862,50.517 21.766,52.103 C22.233,52.198 21.995,52.163 22.481,52.208 C24.236,52.28 25.727,51.393 26.929,50.177 L26.928,50.122 C26.929,50.1 26.929,50.1 26.931,50.069 C26.939,49.995 26.939,49.995 26.944,49.971 C26.954,49.924 26.954,49.924 26.957,49.913 L26.961,49.894 C24.606,48.463 26.026,49.297 22.664,47.454 z M57.972,44.388 C56.274,44.641 54.733,45.404 53.321,46.347 C54.934,48.142 53.704,46.775 57.023,50.438 C58.151,49.513 59.452,48.848 60.846,48.437 L60.275,47.645 C58.52,45.178 59.285,46.265 57.972,44.388 z M46.193,42.562 C46.087,42.658 45.982,42.755 45.878,42.853 C45.565,43.172 45.249,43.487 44.932,43.801 L44.357,44.404 L44.336,44.428 L44.312,44.449 L43.374,45.35 L42.47,46.286 C45.428,48.923 44.042,47.682 46.631,50.008 C47.604,48.922 47.076,49.489 48.221,48.314 L48.826,47.686 C49.824,46.74 49.453,47.051 49.887,46.691 C47.589,44.134 48.821,45.509 46.194,42.562 z M68.952,46.358 C68.753,46.405 68.891,46.38 68.532,46.384 L68.47,46.44 L68.386,46.523 C68.079,46.861 67.802,47.224 67.528,47.59 C67.065,48.198 66.779,48.55 66.429,48.914 L66.311,49.031 L66.495,49.113 C67.49,49.582 67.638,49.645 68.109,49.767 C68.682,49.908 69.272,49.941 69.857,49.838 L69.728,49.602 C69.378,48.545 69.088,47.467 68.952,46.358 z M62.264,44.398 L61.402,44.427 L62.539,46.024 C63.156,46.881 63.768,47.741 64.393,48.592 C64.506,48.569 64.461,48.568 64.529,48.575 C64.848,48.404 65.102,48.136 65.359,47.884 C65.658,47.573 65.916,47.256 66.346,46.691 C66.662,46.277 66.487,46.505 66.873,46.007 C66.544,45.894 66.231,45.741 65.915,45.597 C65.801,45.544 65.392,45.351 65.309,45.313 C65.073,45.203 64.884,45.117 64.701,45.037 C63.383,44.503 64.181,44.766 62.264,44.398 z M27.72,37.265 C26.095,39.619 24.698,42.146 23.606,44.79 C25.09,45.548 26.534,46.381 27.958,47.246 L28.284,46.525 C29.238,44.444 30.469,42.511 31.855,40.694 C28.93,38.222 30.311,39.361 27.72,37.265 z M39.642,35.099 C38.813,35.797 38.059,36.576 37.311,37.358 L37.289,37.381 L37.266,37.403 L36.658,37.984 C35.419,39.244 35.957,38.649 35.019,39.744 C37.062,41.505 39.086,43.286 41.105,45.074 C42.314,43.776 41.677,44.43 43.023,43.115 L43.606,42.502 C44.69,41.42 44.226,41.849 44.969,41.182 C43.183,39.164 41.4,37.142 39.642,35.099 z M53.308,37.62 L52.975,37.764 C51.276,38.524 49.766,39.613 48.292,40.734 C50.955,43.719 49.692,42.31 52.077,44.964 C53.588,43.836 55.057,43.284 56.838,42.766 C55.638,41.067 54.47,39.345 53.308,37.62 z M68.078,36.621 C67.498,36.813 67.796,36.727 67.185,36.877 C66.633,37.28 66.954,37.026 66.256,37.679 L65.978,37.981 C65.458,38.592 65.122,39.148 64.512,40.318 C64.336,40.657 64.333,40.662 64.268,40.786 C63.947,41.377 63.79,41.693 63.362,42.304 C63.205,42.528 63.017,42.728 62.844,42.941 C63.698,43.036 64.506,43.347 65.293,43.676 C65.49,43.761 65.689,43.852 65.937,43.967 C66.022,44.007 66.43,44.199 66.541,44.25 C67.071,44.505 67.611,44.728 68.188,44.847 C68.499,44.704 68.311,44.77 68.763,44.692 C68.573,42 68.516,39.289 68.078,36.621 z M59.796,36.589 C57.651,36.59 58.556,36.462 57.061,36.78 C56.693,37.145 56.886,36.96 56.483,37.336 C58.58,40.42 57.364,38.648 60.146,42.639 C60.518,42.756 60.344,42.682 60.67,42.855 L60.71,42.887 C61.748,42.223 62.384,41.15 62.955,40.093 C63.019,39.972 63.021,39.967 63.196,39.632 C63.654,38.71 64.181,37.828 64.837,37.032 C63.96,37.013 63.087,36.914 62.216,36.821 C62.157,36.814 61.612,36.753 61.453,36.736 C61.165,36.704 60.931,36.68 60.708,36.658 L59.796,36.589 z M48.13,29.647 C47.736,29.809 48.04,29.682 47.228,30.053 C45.298,30.941 43.513,32.093 41.798,33.339 C43.541,35.36 45.304,37.364 47.074,39.362 C48.635,38.049 50.376,36.987 52.196,36.079 L52.259,36.051 C50.855,33.935 49.462,31.81 48.13,29.647 z M34.909,29.438 C33.844,30.219 32.807,31.037 31.798,31.89 C30.955,32.907 30.111,33.924 29.339,34.995 C32.064,37.198 30.63,36.016 33.631,38.552 C35.18,36.814 34.396,37.639 35.976,36.068 L36.567,35.451 C37.904,34.136 37.27,34.71 38.444,33.705 C35.921,30.719 37.096,32.144 34.909,29.438 z M60.57,27.929 C59.206,28.158 57.821,28.201 56.441,28.224 C55.807,28.231 53.621,28.22 53.791,28.221 C52.82,28.22 52.158,28.238 51.594,28.288 C51.317,28.308 51.043,28.351 50.772,28.407 L50.756,28.548 L50.734,28.566 C52.198,30.902 53.699,33.215 55.239,35.502 C55.288,35.596 55.439,35.687 55.487,35.777 C55.5,35.802 55.514,35.876 55.521,35.908 C55.929,35.636 55.72,35.748 56.143,35.564 C56.617,34.986 56.407,35.263 56.782,34.739 C57.303,33.966 57.66,33.297 58.525,31.552 C58.765,31.068 58.899,30.8 59.05,30.504 C59.516,29.625 59.975,28.73 60.57,27.929 z M63.964,26.85 C63.559,27.072 63.773,26.965 63.319,27.165 L62.834,27.564 C62.553,27.872 62.25,28.162 61.991,28.489 C61.34,29.315 60.863,30.257 60.372,31.181 C60.224,31.469 60.093,31.733 59.855,32.212 C59.379,33.187 58.887,34.155 58.324,35.084 C59.167,35.028 60.012,35.105 60.852,35.18 C61.081,35.203 61.321,35.228 61.615,35.26 C61.776,35.278 62.322,35.338 62.38,35.345 C63.782,35.467 65.213,35.687 66.618,35.476 C66.981,35.254 67.339,35.022 67.719,34.83 C67.077,31.936 65.725,29.222 63.964,26.85 z M44.762,23.823 C42.117,24.917 39.549,26.198 37.19,27.833 C39.269,30.403 38.136,29.029 40.602,31.947 C42.396,30.523 44.403,29.418 46.433,28.376 L47.151,28.045 C46.325,26.656 45.479,25.273 44.762,23.823 z M52.065,22.122 C50.501,22.263 48.947,22.473 47.439,22.932 C48.599,25.051 48.059,24.101 49.042,25.792 C49.805,27.059 49.326,27.176 49.82,27.049 C49.832,27.046 49.832,27.046 49.879,27.036 C49.903,27.031 49.903,27.031 49.991,27.022 C50.023,27.021 50.054,27.021 50.085,27.021 C51.395,25.801 52.152,24.381 52.116,22.573 C52.079,22.177 52.106,22.326 52.065,22.122 z M53.561,22.089 L53.598,22.491 C53.698,24.06 53.119,25.474 52.283,26.762 C52.786,26.736 53.289,26.737 53.792,26.736 C53.631,26.736 55.806,26.746 56.426,26.74 C58.506,26.71 60.634,26.62 62.592,25.856 C62.938,25.616 62.8,25.69 62.984,25.597 L62.642,25.193 C60.435,22.863 56.614,22.125 53.561,22.09 z" fill="#FFFFFF"/>
  </g>
</svg>
